HIERARCHY
ROOT Hips
{
  OFFSET 3.13124 94.3669 -3.18751
  CHANNELS  6 Xposition Yposition Zposition Zrotation Xrotation Yrotation
  JOINT LeftUpLeg
  {
    OFFSET 8.64259 1.95398 -2.38835
    CHANNELS 3 Zrotation Xrotation Yrotation
    JOINT LeftLeg
    {
      OFFSET 43.7702 0 0
      CHANNELS 3 Zrotation Xrotation Yrotation
      JOINT LeftFoot
      {
        OFFSET 40.6238 0 0
        CHANNELS 3 Zrotation Xrotation Yrotation
        JOINT LeftToeBase
        {
          OFFSET 12.7242 0 0
          CHANNELS 3 Zrotation Xrotation Yrotation
          End Site
          {
            OFFSET 0 0 0
          }
        }
      }
    }
  }
  JOINT RightUpLeg
  {
    OFFSET -8.2249 1.95398 -2.59336
    CHANNELS 3 Zrotation Xrotation Yrotation
    JOINT RightLeg
    {
      OFFSET 43.5653 0 0
      CHANNELS 3 Zrotation Xrotation Yrotation
      JOINT RightFoot
      {
        OFFSET 40.6238 0 0
        CHANNELS 3 Zrotation Xrotation Yrotation
        JOINT RightToeBase
        {
          OFFSET 12.7242 0 0
          CHANNELS 3 Zrotation Xrotation Yrotation
          End Site
          {
            OFFSET 0 0 0
          }
        }
      }
    }
  }
  JOINT Spine
  {
    OFFSET 0.165834 0.87714 6.61349
    CHANNELS 3 Zrotation Xrotation Yrotation
    JOINT Spine1
    {
      OFFSET 7.38962 1.71661e-005 0
      CHANNELS 3 Zrotation Xrotation Yrotation
      JOINT Spine2
      {
        OFFSET 11.9445 1.14441e-005 0
        CHANNELS 3 Zrotation Xrotation Yrotation
        JOINT Spine3
        {
          OFFSET 14.7254 4.19617e-005 0
          CHANNELS 3 Zrotation Xrotation Yrotation
          JOINT Spine4
          {
            OFFSET 10.9679 0 0
            CHANNELS 3 Zrotation Xrotation Yrotation
            JOINT RightShoulder
            {
              OFFSET 2.46616 -1.6653 3.69651
              CHANNELS 3 Zrotation Xrotation Yrotation
              JOINT RightArm
              {
                OFFSET 13.0012 0 0
                CHANNELS 3 Zrotation Xrotation Yrotation
                JOINT RightForeArm
                {
                  OFFSET 28.7848 1.52588e-005 0
                  CHANNELS 3 Zrotation Xrotation Yrotation
                  JOINT RightHand
                  {
                    OFFSET 26.5688 1.52588e-005 0
                    CHANNELS 3 Zrotation Xrotation Yrotation
                    End Site
                    {
                      OFFSET 0 0 0
                    }
                  }
                }
              }
            }
            JOINT LeftShoulder
            {
              OFFSET 2.38034 -1.29275 -3.75231
              CHANNELS 3 Zrotation Xrotation Yrotation
              JOINT LeftArm
              {
                OFFSET 16.3182 6.10352e-005 0
                CHANNELS 3 Zrotation Xrotation Yrotation
                JOINT LeftForeArm
                {
                  OFFSET 27.0901 0 0
                  CHANNELS 3 Zrotation Xrotation Yrotation
                  JOINT LeftHand
                  {
                    OFFSET 24.5451 1.52588e-005 0
                    CHANNELS 3 Zrotation Xrotation Yrotation
                    End Site
                    {
                      OFFSET 0 0 0
                    }
                  }
                }
              }
            }
            JOINT Neck
            {
              OFFSET 5.0226 -0.0266342 0
              CHANNELS 3 Zrotation Xrotation Yrotation
              JOINT Head
              {
                OFFSET 6.69363 2.86102e-005 0
                CHANNELS 3 Zrotation Xrotation Yrotation
                End Site
                {
                  OFFSET 0 0 0
                }
              }
            }
          }
        }
      }
    }
  }
}
MOTION
Frames:	13
Frame Time:	0.0333333
130.55 90.7752 29.3974 83.6502 -40.8477 77.236 -176.512 31.6222 75.4709 -55.0359 -5.9951 0.345639 -4.51335 -22.7629 -48.0033 28.7808 4.36703e-006 2.60376e-006 -179.759 34.3812 92.8096 -22.3118 24.9491 1.6267 41.2883 14.6345 13.3096 28.7808 1.58089e-005 1.96166e-005 2.97838 7.76453 -96.5216 11.2372 2.72421 -10.9035 -0.477474 2.24498 -11.0093 -22.7369 5.85914 -9.5948 -2.72423 5.85914 -9.59482 89.1194 11.3451 -154.874 51.6048 4.75627 16.1669 132.246 52.7303 -132.02 -7.01595 1.06874 -24.8998 -160.061 -32.8593 -20.2365 -38.2011 -0.500462 -40.8213 1.92486 -20.407 -2.92614 65.9785 -16.0196 -27.6657 -52.8659 -35.7757 50.1608 -16.5776 -15.331 -59.0833 
128.631 92.2519 29.0611 80.7005 -44.2491 74.7474 -177.391 32.0288 76.7587 -50.342 -10.3974 -0.0028385 -10.3543 -21.7393 -51.5374 28.7808 4.36703e-006 2.60376e-006 -179.271 31.2588 92.3634 -13.8529 22.0192 1.43097 39.137 16.4213 15.4259 28.7808 1.58089e-005 1.96166e-005 3.29728 7.82482 -96.3766 11.1538 3.40874 -10.9513 -0.559882 2.92647 -11.0884 -22.8396 6.52882 -9.44779 -2.82695 6.52879 -9.44777 90.8409 14.381 -157.417 58.0961 2.53705 18.5355 143.294 45.5187 -140.333 -1.74549 0.251277 -32.9067 -162.075 -33.1997 -21.7772 -36.2274 -0.259466 -47.6109 1.51383 -62.3668 -2.31386 61.7848 -16.9683 -31.0076 -52.2778 -36.2799 53.0538 -16.7986 -15.1194 -58.8132 
126.614 93.6013 29.0037 79.1243 -45.3809 74.1586 -178.438 31.3762 79.0784 -46.1304 -11.7845 -0.144601 -12.5148 -21.7715 -53.9455 28.7808 4.36703e-006 2.60376e-006 -179.302 31.232 91.8379 -15.5353 37.6093 2.86784 43.6816 18.5755 15.9195 28.7808 1.58089e-005 1.96166e-005 3.45673 7.76296 -96.4386 11.2767 3.60848 -11.0286 -0.437222 3.12272 -11.1742 -22.7194 6.74254 -9.45739 -2.70671 6.74254 -9.45739 92.3947 16.6893 -159.096 61.9291 0.602863 22.2686 145.784 38.0666 -138.982 -1.7217 0.251925 -33.5858 -163.4 -33.4205 -22.7762 -38.1082 0.624189 -45.0498 1.59984 -50.0746 -2.49867 70.5035 -12.0818 -20.6664 -52.044 -36.275 54.7715 -16.4686 -14.832 -58.2222 
124.77 94.8957 29.229 79.9542 -44.9882 75.6341 -179.253 29.8411 81.3339 -42.7706 -12.9081 -0.239678 -14.8024 -20.0436 -53.1625 28.7808 4.36703e-006 2.60376e-006 -179.516 31.0583 91.9298 -18.2261 46.2439 3.94744 51.6263 1.19579 1.14506 28.7808 1.58089e-005 1.96166e-005 3.42262 7.65637 -96.4964 11.4785 3.43279 -10.8024 -0.233538 2.95689 -10.9407 -22.5241 6.50798 -9.29291 -2.51142 6.50792 -9.29291 90.4823 14.4697 -159.372 62.1041 0.644701 25.9395 142.105 36.8988 -134.162 -2.91498 0.52459 -31.4856 -163.922 -33.6416 -23.0616 -39.8379 0.811878 -40.7795 1.6692 -42.4796 -2.60529 68.17 -11.5524 -20.5185 -54.6267 -35.6164 52.6085 -14.5178 -15.0081 -56.701 
123.675 95.0045 29.7214 80.9957 -44.7573 76.1543 -179.218 28.6904 81.8398 -42.5676 -11.1279 -0.281519 -13.0932 -21.5608 -54.3817 28.7808 4.36703e-006 2.60376e-006 -178.954 23.1315 91.1068 -7.86839 51.4366 4.82217 56.4697 -20.6956 -14.1253 28.7808 1.58089e-005 1.96166e-005 0.886157 9.64486 -91.7091 7.58479 1.19514 -3.52323 -4.09032 1.03899 -3.57234 -26.6014 2.1985 -3.00192 -6.58879 2.19849 -3.00194 86.7028 -6.29295 -130.528 47.0895 -4.73387 -20.8451 106.4 63.4581 -110.628 0.136476 -0.0659524 -12.2783 -134.201 -38.8168 11.1896 -32.7541 -4.97324 -40.5262 1.75164 -34.7077 -2.71536 57.222 -9.73687 -21.0636 -32.754 -13.3386 50.5848 -5.61455 -4.55258 -46.1714 
121.876 97.2571 29.839 80.7795 -46.2198 78.0367 179.476 25.0828 85.5083 -34.6688 -13.4935 -0.379973 -14.6764 -20.6033 -54.1721 28.7808 4.36703e-006 2.60376e-006 -179.76 25.1382 91.7427 -15.4765 28.4041 1.85441 36.6596 -19.7619 -17.7405 28.7808 1.58089e-005 1.96166e-005 3.65776 7.03322 -96.2812 12.7785 4.11693 -10.9767 1.06657 3.63286 -11.1445 -21.2398 7.21289 -9.25563 -1.22719 7.21286 -9.25562 82.4368 4.22421 -159.65 55.9601 6.59165 39.1235 128.675 39.1936 -122.598 -5.17182 0.873782 -27.433 -166.587 -32.3108 -26.2041 -42.7394 -0.845676 -28.4131 1.81057 -29.6378 -2.78881 51.5973 -9.82613 -23.3645 -65.3178 -35.5642 42.4716 -10.6364 -16.8698 -54.3755 
120.553 98.4282 30.1459 80.6739 -47.7152 78.2708 179.151 22.4296 87.0144 -29.3087 -17.149 -0.677611 -16.6883 -19.0121 -53.5082 28.7808 4.36703e-006 2.60376e-006 179.454 30.8557 89.7465 -30.7193 1.82639 -0.0421216 31.6624 -2.88542 -1.85694 28.7808 1.58089e-005 1.96166e-005 1.62683 9.40286 -92.5143 8.05596 1.94707 -3.60907 -3.6188 1.78643 -3.69116 -26.1383 2.94145 -2.85433 -6.12566 2.94145 -2.85435 86.2773 -7.14262 -131.182 49.0199 -5.45175 -13.5615 87.0848 59.3987 -93.1274 -3.9821 0.326589 -17.0886 -133.574 -39.6652 12.4912 -34.5116 -4.73876 -35.2161 1.76045 -33.8902 -2.72669 45.421 -10.382 -27.4002 -34.7422 -13.3384 50.5238 -4.819 -3.88894 -46.109 
119.184 100.092 30.5724 79.6313 -48.0714 77.8837 179.038 21.1174 88.1338 -23.111 -20.9542 -1.02173 -17.6995 -14.6703 -44.5907 28.7808 4.36703e-006 2.60376e-006 179.733 27.1887 90.0228 -22.726 15.5576 0.869611 14.0241 -8.46649 -10.0167 28.7808 1.58089e-005 1.96166e-005 1.65436 9.19334 -92.2894 8.47935 2.13789 -3.64116 -3.19522 1.97581 -3.73104 -25.7173 3.13134 -2.83131 -5.70464 3.13134 -2.83132 85.5935 -8.54066 -131.119 49.8949 -5.39117 -10.6452 77.2751 57.8749 -84.7595 -6.59398 0.766707 -20.2228 -132.286 -40.3477 14.6121 -36.5636 -4.39649 -30.3955 1.90875 -21.9734 -2.90504 39.4013 -9.98571 -29.8789 -34.9102 -12.6837 50.4773 -4.83845 -3.14186 -45.9137 
118.317 100.524 31.4256 79.0905 -47.7083 75.546 178.435 14.3738 87.3622 -11.5095 -22.7653 -1.57809 -17.5068 -15.2712 -45.9312 28.7808 4.36703e-006 2.60376e-006 -179.428 17.5916 87.814 -8.47735 56.1377 5.82337 37.5742 -7.36218 -5.98101 28.7808 1.58089e-005 1.96166e-005 1.09456 9.02893 -90.5326 8.88605 2.39947 -3.38176 -2.78724 2.25008 -3.48409 -25.3187 3.30295 -2.50386 -5.30608 3.30296 -2.50388 85.4223 -11.5363 -128.494 50.0464 -5.23262 -7.59109 68.2196 53.9235 -77.6098 -8.76411 0.926861 -18.4992 -130.436 -40.1188 16.6775 -37.8711 -4.55837 -25.9761 1.92043 -21.1068 -2.9187 31.4485 -8.4938 -31.5876 -34.8708 -12.9431 50.2836 -5.45343 -3.13702 -47.9098 
117.284 100.574 32.03 79.3947 -47.0195 75.8322 178.333 9.15193 87.5755 -9.41587 -17.3677 -1.12244 -12.8759 -21.5617 -53.9768 28.7808 4.36703e-006 2.60376e-006 -179.567 17.2594 87.7742 -7.74837 52.7501 5.0668 34.9658 -4.73042 -3.72663 28.7808 1.58089e-005 1.96166e-005 1.16584 8.73291 -90.5607 9.47994 2.42914 -3.04214 -2.1926 2.29196 -3.14515 -24.7295 3.22791 -2.17761 -4.71686 3.2279 -2.1776 84.9917 -16.1917 -125.439 49.449 -4.9797 -3.16682 61.8622 46.5765 -74.0966 -11.8286 0.755112 -12.9642 -128.171 -39.2593 18.9073 -39.3881 -5.11114 -19.4322 1.85699 -21.8947 -3.05593 21.1685 -7.07413 -37.0289 -34.5464 -12.4697 47.4371 -6.23231 -2.98629 -47.8418 
116.019 100.651 32.4325 82.0225 -44.0915 77.0727 177.425 3.31953 85.545 -11.0683 -8.55855 -0.581453 -3.69502 -29.9368 -58.7411 28.7808 4.36703e-006 2.60376e-006 -179.777 15.9675 87.0147 -7.97619 53.8677 5.30516 35.096 -3.99081 -3.00626 28.7808 1.58089e-005 1.96166e-005 0.722125 8.51495 -90.1577 9.89383 1.62165 -2.53089 -1.77869 1.50872 -2.59976 -24.3092 2.30719 -1.92675 -4.29664 2.30719 -1.92677 85.0284 -20.5213 -122.125 49.729 -5.58249 0.456991 55.2542 39.6213 -71.3232 -10.2966 0.293846 -8.85847 -125.034 -39.2855 22.9839 -39.4398 -4.19243 -6.75142 -4.7627 -19.5396 -22.3964 21.5394 -4.94537 -27.0319 -32.1864 -10.9454 42.7595 -8.61995 -2.29608 -45.17 
114.844 100.28 32.5272 82.4222 -40.9004 77.5956 176.031 -2.15376 83.693 -7.90775 -3.26491 -0.203306 4.5025 -36.187 -59.0489 28.7808 4.36703e-006 2.60376e-006 -179.916 16.2938 86.9812 -8.36176 55.6458 5.70409 35.7814 -3.56407 -2.58176 28.7808 1.58089e-005 1.96166e-005 0.34956 8.21608 -90.2296 10.4617 0.825943 -1.93791 -1.21045 0.739805 -1.97238 -23.7393 1.37044 -1.60015 -3.72668 1.37045 -1.60019 84.7026 -26.4356 -119.027 48.0607 -4.6673 3.58832 50.394 33.0041 -70.7637 -7.80818 -0.168626 -2.83455 -119.481 -37.5665 29.2909 -40.5874 -2.32494 1.18078 -13.7243 -23.6604 -37.8138 21.9166 -2.98207 -17.7569 -26.9847 -9.25657 36.2207 -12.8171 -1.85288 -40.8397 
114.098 100.127 32.417 80.5723 -40.812 77.5452 175.119 -1.89309 81.8059 -9.95276 -7.80201 -0.513823 10.4064 -34.4948 -51.5518 28.7808 4.36703e-006 2.60376e-006 -179.303 18.0067 88.0825 -8.11059 54.4935 5.44464 34.6293 -3.33469 -2.3937 28.7808 1.58089e-005 1.96166e-005 0.319313 7.77221 -90.1308 11.3556 0.864099 -2.2274 -0.316969 0.765991 -2.26306 -22.8431 1.48746 -1.86599 -2.8305 1.48746 -1.86602 85.4425 -28.9785 -116.184 47.2033 -3.93844 7.55402 47.7465 27.6915 -71.9371 -4.37752 -0.242835 1.29728 -118.479 -37.5964 30.6376 -39.6405 -2.17833 8.77773 -22.3906 -24.2976 -50.5278 21.4126 -1.52205 -11.1637 -23.8108 -9.67408 32.7051 -15.4948 -2.82032 -39.6519 
